<svg xmlns:dc="http://purl.org/dc/elements/1.1/" xmlns:cc="http://creativecommons.org/ns#" xmlns:rdf="http://www.w3.org/1999/02/22-rdf-syntax-ns#" xmlns:svg="http://www.w3.org/2000/svg" xmlns="http://www.w3.org/2000/svg" xmlns:sodipodi="http://sodipodi.sourceforge.net/DTD/sodipodi-0.dtd" xmlns:inkscape="http://www.inkscape.org/namespaces/inkscape" width="251.87778" height="88.961868" viewBox="0 0 66.642661 23.537827" version="1.1" id="svg12520" inkscape:version="0.92.0 r15299" xmlns:xlink="http://www.w3.org/1999/xlink">
 <defs id="defs12514">
  <clipPath id="clipPath11969" clipPathUnits="userSpaceOnUse">
   <path inkscape:connector-curvature="0" id="path11967" d="m 213.685,241.673 h 188.882 v 66.202 H 213.685 Z">
   </path>
  </clipPath>
 </defs>
 <sodipodi:namedview id="base" pagecolor="#ffffff" bordercolor="#666666" borderopacity="1.0" inkscape:pageopacity="0.0" inkscape:pageshadow="2" inkscape:zoom="3.589755" inkscape:cx="124.93889" inkscape:cy="43.480934" inkscape:document-units="mm" inkscape:current-layer="layer1" showgrid="false" fit-margin-top="0" fit-margin-left="0" fit-margin-right="0" fit-margin-bottom="0" units="px" inkscape:window-width="1280" inkscape:window-height="744" inkscape:window-x="-4" inkscape:window-y="-4" inkscape:window-maximized="1">
 </sodipodi:namedview>
 <metadata id="metadata12517">
  <rdf:RDF>
   <cc:Work rdf:about="">
    <dc:format>
     image/svg+xml
    </dc:format>
    <dc:type rdf:resource="http://purl.org/dc/dcmitype/StillImage">
    </dc:type>
    <dc:title>
    </dc:title>
   </cc:Work>
  </rdf:RDF>
 </metadata>
 <g inkscape:label="Layer 1" inkscape:groupmode="layer" id="layer1" transform="translate(20.583533,-136.79985)">
  <g id="g11963" transform="matrix(0.35277777,0,0,-0.35277777,-95.984061,245.67561)">
   <g id="g11965" clip-path="url(#clipPath11969)">
    <g id="g11971" transform="translate(351.6038,242.6533)">
     <path d="M 0,0 C 6.126,0 4.678,7.53 4.675,13.947 4.672,15.917 1.861,15.919 1.84,14.147 1.778,9.113 3.331,2.778 0.07,2.792 c -1.333,0.092 -3.422,4.357 -5.173,7.567 -1.528,2.534 -3.226,5.22 -5.029,5.22 -6.125,0 -4.755,-7.659 -4.749,-14.078 0,-1.966 2.815,-1.97 2.834,-0.196 0.058,5.035 -1.418,11.494 1.846,11.479 1.334,-0.093 3.268,-4.35 5.021,-7.557 C -3.65,2.694 -1.796,0 0,0 M -42.127,14.079 V 1.557 c 0,-1.877 2.84,-1.949 2.84,-0.075 v 12.561 c 0,1.986 -2.84,1.973 -2.84,0.036 M 47.478,0.941 c 0.841,-1.852 3.485,-0.534 2.649,1.318 -1.5,3.323 -7.169,13.354 -11.603,13.266 -4.428,0.088 -10.089,-9.943 -11.595,-13.266 -0.838,-1.852 1.808,-3.17 2.644,-1.318 1.397,3.089 6.152,11.706 8.977,11.706 2.825,0 7.534,-8.617 8.928,-11.706 M 11.292,9.669 c 0,1.698 -2.525,1.712 -2.525,0.012 V 2.514 c 0,-1.437 0.86,-1.956 1.988,-2.181 2.854,-0.57 15.524,-1.182 16.123,7.414 C 26.194,16.46 11.684,16.17 7.959,14.81 5.991,14.094 6.668,11.981 8.824,12.806 c 3.499,0.766 5.718,0.754 9.167,0 2.816,-0.616 5.78,-2.757 5.78,-5.059 C 23.563,2.021 14.831,1.797 11.292,2.543 Z M -25.911,6.49 c 1.261,0 1.261,2.331 0,2.331 l -8.104,0.008 c 1.538,5.238 9.44,4.777 12.355,4.389 2.216,-0.464 2.657,1.786 0.529,2.062 -4.344,0.568 -15.733,0.785 -16.193,-7.533 0.84,-8.728 15.09,-8.26 18.972,-6.952 1.981,0.668 1.242,2.695 -0.848,2.012 -3.501,-0.768 -5.715,-0.755 -9.169,0.002 -2.291,0.5 -4.664,1.931 -5.495,3.686 z m -38.679,8.142 c -0.836,1.852 -3.475,0.534 -2.646,-1.317 1.502,-3.328 7.166,-13.354 11.598,-13.266 4.43,-0.088 10.098,9.938 11.598,13.266 0.835,1.851 -1.808,3.169 -2.644,1.317 -1.396,-3.091 -6.149,-11.706 -8.978,-11.706 -2.823,0 -7.533,8.615 -8.928,11.706 m -7.471,-0.553 0.002,-12.522 c 0,-1.877 2.835,-1.949 2.835,-0.075 l -0.005,12.561 c 0,1.986 -2.832,1.973 -2.832,0.036 m -22.475,0.553 c -0.835,1.85 -3.484,0.534 -2.644,-1.317 1.502,-3.328 7.161,-13.354 11.6,-13.266 4.429,-0.088 10.094,9.938 11.592,13.266 0.842,1.851 -1.803,3.169 -2.642,1.317 -1.395,-3.091 -6.156,-11.706 -8.976,-11.706 -2.824,0 -7.532,8.615 -8.93,11.706 M -96.432,0.941 c 0.833,-1.852 3.476,-0.534 2.638,1.318 -1.5,3.323 -7.165,13.354 -11.593,13.266 -4.44,0.088 -10.101,-9.943 -11.603,-13.266 -0.837,-1.852 1.805,-3.17 2.648,-1.318 1.392,3.089 6.153,11.706 8.976,11.706 2.828,0 7.537,-8.617 8.934,-11.706 m -36.192,1.602 c 3.539,-0.746 12.278,-0.522 12.48,5.204 0,2.302 -2.96,4.443 -5.779,5.059 -3.451,0.754 -5.664,0.766 -9.168,0 -2.152,-0.825 -2.828,1.288 -0.866,2.004 3.73,1.36 18.244,1.65 18.923,-7.063 -0.6,-8.596 -13.268,-7.984 -16.123,-7.414 -1.131,0.225 -1.99,0.744 -1.99,2.181 v 7.167 c 0,1.7 2.525,1.686 2.525,-0.012 z" style="fill:#e30518;fill-opacity:1;fill-rule:nonzero;stroke:none" id="path11973" inkscape:connector-curvature="0">
     </path>
    </g>
    <g id="g11975" transform="translate(291.9323,289.9992)">
     <path d="m 0,0 c 0.098,-0.855 0.021,-4.422 -3.277,-9.319 -3.42,-5.404 1.988,-14.425 12.885,-12.135 2.388,-0.859 4.972,-0.983 6.644,-0.968 1.673,-0.015 4.285,0.092 6.674,0.95 10.897,-2.289 16.274,6.749 12.854,12.153 -3.298,4.897 -3.373,8.464 -3.276,9.319 z" style="fill:#e30518;fill-opacity:1;fill-rule:evenodd;stroke:none" id="path11977" inkscape:connector-curvature="0">
     </path>
    </g>
    <g id="g11979" transform="translate(308.184,267.6283)">
     <path d="m 0,0 c -10.648,0.271 -12.581,5.17 -9.639,6.2 1.708,0.598 3.957,1.598 3.957,1.598 -1.134,5.533 0.742,12.589 5.712,12.582 4.971,0.007 6.782,-7.277 5.656,-12.7 0,0 2.27,-0.818 3.954,-1.48 C 12.407,5.112 10.649,0.271 0,0" style="fill:#007ac0;fill-opacity:1;fill-rule:evenodd;stroke:none" id="path11981" inkscape:connector-curvature="0">
     </path>
    </g>
    <g id="g11983" transform="translate(304.1733,271.5244)">
     <path d="M 0,0 C -2.85,7.629 -0.348,15.286 4.012,15.271 8.165,15.242 10.98,8.062 8.05,-0.023 c 0,0 -1.384,0.316 -4.182,0.316 C 1.79,0.293 0,0 0,0" style="fill:#ffe000;fill-opacity:1;fill-rule:evenodd;stroke:none" id="path11985" inkscape:connector-curvature="0">
     </path>
    </g>
    <g id="g11987" transform="translate(308.184,267.5469)">
     <path d="m 0,0 c 4.291,0 7.665,0.92 7.665,2.201 0,1.28 -3.374,2.2 -7.665,2.2 -4.29,0 -7.664,-0.92 -7.664,-2.2 C -7.664,0.92 -4.29,0 0,0" style="fill:#f49800;fill-opacity:1;fill-rule:evenodd;stroke:none" id="path11989" inkscape:connector-curvature="0">
     </path>
    </g>
    <g id="g11991" transform="translate(294.0103,286.0971)">
     <path d="M 0,0 H 5.15 C 5.966,0 6.628,-0.662 6.628,-1.478 V -4.95 c 0,-0.816 -0.662,-1.477 -1.478,-1.477 H 0 c -0.815,0 -1.478,0.661 -1.478,1.477 v 3.472 C -1.478,-0.662 -0.815,0 0,0" style="fill:#007ac0;fill-opacity:1;fill-rule:evenodd;stroke:none" id="path11993" inkscape:connector-curvature="0">
     </path>
    </g>
    <g id="g11995" transform="translate(294.0103,285.9687)">
     <path d="m 0,0 c -0.744,0 -1.349,-0.605 -1.349,-1.349 v -3.472 c 0,-0.744 0.605,-1.35 1.349,-1.35 h 5.15 c 0.745,0 1.349,0.606 1.349,1.35 v 3.472 C 6.499,-0.605 5.895,0 5.15,0 Z M 5.15,-6.427 H 0 c -0.885,0 -1.605,0.72 -1.605,1.606 v 3.472 c 0,0.885 0.72,1.605 1.605,1.605 h 5.15 c 0.886,0 1.606,-0.72 1.606,-1.605 v -3.472 c 0,-0.886 -0.72,-1.606 -1.606,-1.606" style="fill:#231f20;fill-opacity:1;fill-rule:nonzero;stroke:none" id="path11997" inkscape:connector-curvature="0">
     </path>
    </g>
    <g id="g11999" transform="translate(293.487,284.1507)">
     <path d="M 0,0 C 0,0.615 0.499,1.113 1.114,1.113 H 5.193 C 5.808,1.113 6.306,0.615 6.306,0 v -2.535 c 0,-0.615 -0.498,-1.112 -1.113,-1.112 H 1.114 C 0.499,-3.647 0,-3.15 0,-2.535 Z" style="fill:#231f20;fill-opacity:1;fill-rule:evenodd;stroke:none" id="path12001" inkscape:connector-curvature="0">
     </path>
    </g>
    <g id="g12003" transform="translate(299.793,282.2512)">
     <path d="m 0,0 c -1.841,0.184 -2.483,2.341 -2.639,3.013 h 1.526 C -0.498,3.013 0,2.514 0,1.899 Z" style="fill:#ffe000;fill-opacity:1;fill-rule:evenodd;stroke:none" id="path12005" inkscape:connector-curvature="0">
     </path>
    </g>
    <g id="g12007" transform="translate(296.1501,285.264)">
     <path d="m 0,0 c -0.12,-0.615 -0.699,-2.924 -2.663,-3.022 v 1.908 c 0,0.615 0.498,1.114 1.114,1.114 z" style="fill:#ffe000;fill-opacity:1;fill-rule:evenodd;stroke:none" id="path12009" inkscape:connector-curvature="0">
     </path>
    </g>
    <g id="g12011" transform="translate(317.2083,286.0971)">
     <path d="M 0,0 H 5.149 C 5.965,0 6.628,-0.662 6.628,-1.478 V -4.95 c 0,-0.816 -0.663,-1.477 -1.479,-1.477 H 0 c -0.815,0 -1.478,0.661 -1.478,1.477 v 3.472 C -1.478,-0.662 -0.815,0 0,0" style="fill:#007ac0;fill-opacity:1;fill-rule:evenodd;stroke:none" id="path12013" inkscape:connector-curvature="0">
     </path>
    </g>
    <g id="g12015" transform="translate(317.2083,285.9687)">
     <path d="m 0,0 c -0.744,0 -1.35,-0.605 -1.35,-1.349 v -3.472 c 0,-0.744 0.606,-1.35 1.35,-1.35 h 5.149 c 0.745,0 1.35,0.606 1.35,1.35 v 3.472 C 6.499,-0.605 5.894,0 5.149,0 Z M 5.149,-6.427 H 0 c -0.886,0 -1.606,0.72 -1.606,1.606 v 3.472 c 0,0.885 0.72,1.605 1.606,1.605 h 5.149 c 0.886,0 1.606,-0.72 1.606,-1.605 v -3.472 c 0,-0.886 -0.72,-1.606 -1.606,-1.606" style="fill:#231f20;fill-opacity:1;fill-rule:nonzero;stroke:none" id="path12017" inkscape:connector-curvature="0">
     </path>
    </g>
    <g id="g12019" transform="translate(316.6845,284.1507)">
     <path d="M 0,0 C 0,0.615 0.497,1.113 1.112,1.113 H 5.194 C 5.808,1.113 6.306,0.615 6.306,0 v -2.535 c 0,-0.615 -0.498,-1.112 -1.112,-1.112 H 1.112 C 0.497,-3.647 0,-3.15 0,-2.535 Z" style="fill:#231f20;fill-opacity:1;fill-rule:evenodd;stroke:none" id="path12021" inkscape:connector-curvature="0">
     </path>
    </g>
    <g id="g12023" transform="translate(322.9905,282.2512)">
     <path d="m 0,0 c -1.841,0.184 -2.483,2.341 -2.64,3.013 h 1.528 C -0.498,3.013 0,2.514 0,1.899 Z" style="fill:#ffe000;fill-opacity:1;fill-rule:evenodd;stroke:none" id="path12025" inkscape:connector-curvature="0">
     </path>
    </g>
    <g id="g12027" transform="translate(319.3466,285.264)">
     <path d="m 0,0 c -0.119,-0.615 -0.698,-2.924 -2.662,-3.022 v 1.908 C -2.662,-0.499 -2.165,0 -1.55,0 Z" style="fill:#ffe000;fill-opacity:1;fill-rule:evenodd;stroke:none" id="path12029" inkscape:connector-curvature="0">
     </path>
    </g>
    <g id="g12031" transform="translate(318.8422,303.3706)">
     <path d="M 0,0 C -0.549,1.847 -0.642,2.776 1.049,2.779 H 4.786 C 7.04,2.821 6.11,1.061 5.891,-0.666 5.601,-2.944 5.601,-3.63 5.601,-3.63 5.601,-3.63 0.009,-0.029 0,0" style="fill:#e30518;fill-opacity:1;fill-rule:evenodd;stroke:none" id="path12033" inkscape:connector-curvature="0">
     </path>
    </g>
    <g id="g12035" transform="translate(308.1665,290.1722)">
     <path d="m 0,0 c -5.546,-0.008 -13.188,-0.483 -18.088,-0.86 -3.765,-0.29 -6.674,2.577 -4.169,5.289 5.329,5.77 18.35,13.063 22.296,13.063 4.192,0 16.968,-7.293 22.297,-13.063 C 24.84,1.717 22.313,-0.86 18.538,-0.86 14.326,-0.86 5.548,-0.008 0,0" style="fill:#f49800;fill-opacity:1;fill-rule:evenodd;stroke:none" id="path12037" inkscape:connector-curvature="0">
     </path>
    </g>
    <g id="g12039" transform="translate(311.1711,277.2261)">
     <path d="M 0,0 C 0,0.411 0.324,0.744 0.723,0.744 1.123,0.744 1.446,0.411 1.446,0 1.446,-0.41 1.123,-0.743 0.723,-0.743 0.324,-0.743 0,-0.41 0,0" style="fill:#231f20;fill-opacity:1;fill-rule:evenodd;stroke:none" id="path12041" inkscape:connector-curvature="0">
     </path>
    </g>
    <g id="g12043" transform="translate(318.3672,303.9022)">
     <path d="m 0,0 c -0.041,0.164 -0.088,0.329 -0.134,0.493 -0.277,0.993 -0.03,2.1 1.687,2.1 h 3.721 c 2.195,0 1.951,-1.511 1.578,-2.98 -0.266,-1.048 -0.485,-2.374 -0.577,-3.628 0,0 3.051,-2.243 4.738,-3.665 5.337,-4.499 1.859,-7.442 -3.227,-7.186 -0.512,0.026 -1.013,0.05 -1.503,0.076 0.036,-1.501 0.478,-4.258 2.82,-7.398 5.909,-7.062 -1.912,-15.931 -12.961,-13.435 -1.822,-0.609 -4.721,-0.889 -6.321,-0.889 -1.598,0 -4.499,0.28 -6.321,0.889 -11.048,-2.496 -18.87,6.373 -12.961,13.435 2.343,3.141 2.785,5.899 2.82,7.398 l -1.504,-0.076 c -5.085,-0.256 -8.564,2.687 -3.226,7.186 7.919,6.673 17.499,11.633 21.192,11.652 C -8.15,3.962 -4.33,2.458 0,0 m -10.171,-13.331 c -5.753,-0.08 -11.22,-0.486 -17.648,-0.901 -3.988,-0.257 -6.226,2.408 -3.713,5.158 3.701,4.05 16.343,12.393 21.353,12.393 5.01,0 17.651,-8.343 21.353,-12.393 2.514,-2.75 0.275,-5.415 -3.713,-5.158 -6.427,0.415 -11.879,0.821 -17.632,0.901 m 7.194,-21.967 c 10.222,-1.732 15.223,6.843 11.943,12.026 -2.521,3.744 -3.122,6.903 -3.22,8.51 -6.699,0.355 -11.309,0.679 -15.925,0.745 -4.617,-0.066 -9.226,-0.389 -15.927,-0.744 -0.097,-1.606 -0.695,-4.766 -3.219,-8.511 -3.28,-5.184 1.723,-13.761 11.947,-12.026 -4.343,1.639 -4.873,4.445 -2.555,5.339 1.689,0.651 3.958,1.479 3.958,1.479 -1.135,5.534 0.825,12.828 5.796,12.821 4.972,0.007 6.93,-7.287 5.797,-12.821 0,0 2.268,-0.828 3.958,-1.479 2.317,-0.894 1.783,-3.7 -2.553,-5.339 M 0.745,-0.432 C 0.313,1.254 0.308,1.954 1.765,1.956 L 4.959,1.953 C 7.085,1.992 6.213,0.349 6.021,-1.283 5.904,-2.278 5.83,-3.067 5.799,-3.68 4.092,-2.485 2.387,-1.395 0.745,-0.432 m -6.697,-31.78 c 2.77,7.978 0.083,15.306 -4.227,15.292 -4.31,0.014 -6.997,-7.313 -4.226,-15.292 -2.137,-0.413 -3.553,-1.13 -3.553,-1.946 0,-0.26 0.141,-0.509 0.414,-0.742 -3.59,1.579 -3.923,4.152 -1.959,4.847 1.703,0.604 3.78,1.412 3.78,1.412 -1.1,5.371 0.595,12.578 5.544,12.575 4.95,0.003 6.644,-7.204 5.545,-12.575 0,0 2.067,-0.841 3.78,-1.412 1.928,-0.643 1.642,-3.231 -1.932,-4.828 0.25,0.228 0.386,0.471 0.386,0.723 0,0.816 -1.416,1.533 -3.552,1.946 m -0.319,-0.231 c 2.18,-0.35 3.639,-0.985 3.639,-1.715 0,-1.111 -3.378,-2.012 -7.539,-2.012 -4.164,0 -7.555,0.901 -7.555,2.012 0,0.73 1.454,1.367 3.642,1.717 0,0 2.378,0.285 3.905,0.285 1.529,0 3.908,-0.287 3.908,-0.287 m -3.908,0.602 c -2.207,0 -3.999,-0.33 -3.999,-0.33 -2.637,7.689 -0.22,14.933 3.999,14.933 4.223,0 6.64,-7.256 4.001,-14.935 0,0 -1.706,0.332 -4.001,0.332" style="fill:#231f20;fill-opacity:1;fill-rule:evenodd;stroke:none" id="path12045" inkscape:connector-curvature="0">
     </path>
    </g>
   </g>
  </g>
 </g>
</svg>