<?xml version="1.0" encoding="iso-8859-1"?>
<!-- Generator: Adobe Illustrator 21.0.0, SVG Export Plug-In . SVG Version: 6.00 Build 0)  -->
<svg version="1.1" id="Capa_1" xmlns="http://www.w3.org/2000/svg" xmlns:xlink="http://www.w3.org/1999/xlink" x="0px" y="0px"
	 viewBox="0 0 96.92 57.73" style="enable-background:new 0 0 96.92 57.73;" xml:space="preserve">
<g>
	<path style="fill-rule:evenodd;clip-rule:evenodd;fill:#D51A5F;" d="M6.63,0H90.3c3.64,0,6.63,2.98,6.63,6.63v44.48
		c0,3.64-2.98,6.63-6.63,6.63H6.63C2.98,57.73,0,54.75,0,51.11V6.63C0,2.98,2.98,0,6.63,0L6.63,0z"/>
	<path style="fill:#FFFFFF;" d="M60.4,33.11c1.02-2.68,5.07-13.33,5.31-13.98c0.05-0.15,0.08-0.31,0.08-0.47
		c0-0.76-0.62-1.38-1.38-1.38c-0.63,0-1.19,0.43-1.34,1.05L58.5,30.37c0,0-4.54-12.01-4.68-12.32c-0.23-0.47-0.71-0.77-1.24-0.77
		c-0.23,0-0.46,0.06-0.67,0.17c-0.35,0.18-0.6,0.51-0.67,0.89c-0.02,0.1-0.03,0.2-0.03,0.3c0,0.26,0.06,0.52,0.18,0.75l5.21,13.72
		c0.32,0.83,1.34,0.95,1.9,0.95C59.05,34.07,60.08,33.94,60.4,33.11L60.4,33.11L60.4,33.11z M60.4,33.11L60.4,33.11L60.4,33.11
		L60.4,33.11z"/>
	<path style="fill:#FFFFFF;" d="M46.73,24.78c-0.1-0.66-0.31-1.29-0.63-1.88c-0.54-0.99-1.35-1.8-2.34-2.34
		c-0.33-0.18-0.68-0.33-1.04-0.44c-0.27-0.08-0.56-0.15-0.84-0.19c-0.29-0.04-0.59-0.07-0.89-0.07c-0.3,0-0.59,0.02-0.89,0.07
		c-0.28,0.04-0.57,0.11-0.84,0.19c-0.63,0.2-1.22,0.5-1.74,0.89c-0.67,0.5-1.23,1.15-1.63,1.89c-0.18,0.33-0.33,0.68-0.44,1.04
		c-0.08,0.27-0.15,0.56-0.19,0.84c-0.04,0.29-0.07,0.59-0.07,0.89c0,0.3,0.02,0.6,0.07,0.89c0.04,0.28,0.11,0.56,0.19,0.84
		c0.11,0.36,0.26,0.71,0.44,1.04c0.54,0.99,1.35,1.8,2.34,2.34c0.58,0.32,1.22,0.53,1.88,0.63c0.3,0.05,0.59,0.07,0.89,0.07
		c0.58,0,1.17-0.09,1.72-0.26c0.36-0.11,0.71-0.26,1.04-0.44c0.99-0.54,1.8-1.35,2.34-2.34c0.32-0.58,0.53-1.22,0.63-1.88
		c0.04-0.29,0.07-0.59,0.07-0.89C46.79,25.37,46.77,25.07,46.73,24.78L46.73,24.78L46.73,24.78z M49.7,25.67
		c0,4.81-3.9,8.71-8.71,8.71c-4.81,0-8.71-3.9-8.71-8.71c0-4.81,3.9-8.71,8.71-8.71C45.8,16.96,49.7,20.86,49.7,25.67L49.7,25.67z"
		/>
	<path style="fill:#FFFFFF;" d="M21.55,31.28l5.17-8.97v9.32c-0.01,0.13-0.02,0.26-0.02,0.39c0,0.4,0.05,0.8,0.16,1.19
		c0.24,0.51,0.75,0.83,1.31,0.83c0.66,0,1.24-0.44,1.41-1.08c0.03-0.4,0.05-0.8,0.05-1.2c0-0.13,0-0.27-0.01-0.41l0-11.51
		c0.01-0.12,0.01-0.25,0.01-0.37c0-0.44-0.04-0.88-0.12-1.3c-0.23-0.54-0.75-0.89-1.34-0.89c0,0,0,0,0,0
		c-0.14-0.01-0.28-0.02-0.41-0.02c-0.41,0-0.83,0.05-1.23,0.14c-0.6,0.26-0.77,0.76-1.05,1.24L21.24,26L17,18.64
		c-0.28-0.48-0.45-0.99-1.05-1.24c-0.4-0.09-0.81-0.14-1.23-0.14c-0.14,0-0.28,0.01-0.41,0.02c0,0,0,0,0,0
		c-0.59,0-1.12,0.35-1.34,0.89c-0.08,0.43-0.12,0.87-0.12,1.31c0,0.12,0,0.25,0.01,0.37v11.51c0,0.13-0.01,0.27-0.01,0.41
		c0,0.4,0.02,0.8,0.05,1.2c0.17,0.64,0.75,1.08,1.41,1.08c0.56,0,1.07-0.32,1.31-0.83c0.1-0.39,0.16-0.79,0.16-1.19
		c0-0.13-0.01-0.26-0.02-0.39l0-9.32l5.17,8.97H21.55L21.55,31.28z"/>
	<path style="fill:#FFFFFF;" d="M77.15,32.6V18.78c0-0.02,0-0.03,0-0.05c0-0.8-0.65-1.45-1.45-1.45c-0.8,0-1.45,0.65-1.45,1.45
		c0,0,0,0.01,0,0.01l0,13.82c0,0.02,0,0.03,0,0.05c0,0.8,0.65,1.45,1.45,1.45c0.8,0,1.45-0.65,1.45-1.45
		C77.15,32.6,77.15,32.6,77.15,32.6L77.15,32.6L77.15,32.6z M77.15,32.6L77.15,32.6L77.15,32.6L77.15,32.6z"/>
	<path style="fill:#FFFFFF;" d="M69.17,34.05c-0.81,0-1.46-0.65-1.46-1.46c0-0.04,0-0.07,0-0.11c0-0.74,0-12.98,0-13.75
		c0-0.8,0.65-1.45,1.45-1.45c0.8,0,1.45,0.65,1.45,1.45c0,0.78,0,13.02,0,13.76c0,0.04,0,0.07,0,0.11
		C70.63,33.4,69.97,34.05,69.17,34.05L69.17,34.05L69.17,34.05z M69.17,34.05L69.17,34.05L69.17,34.05L69.17,34.05z"/>
	<path style="fill:#FFFFFF;" d="M81.25,34.11c-0.09-0.04-0.18-0.06-0.28-0.06c-0.4,0-0.73,0.33-0.73,0.73
		c0,0.28,0.16,0.53,0.41,0.65c0.54,0.23,1,0.61,1.33,1.08c-2.89,1.81-6.23,2.78-9.65,2.78c-3.36,0-6.65-0.94-9.51-2.7
		c-0.11-0.07-0.25-0.11-0.38-0.11c-0.4,0-0.73,0.33-0.73,0.73c0,0.25,0.13,0.49,0.35,0.62c3.09,1.9,6.65,2.91,10.28,2.91
		c3.61,0,7.15-1,10.23-2.89c0.04,0.21,0.06,0.42,0.06,0.64c0,0.43-0.09,0.85-0.25,1.25c-0.04,0.09-0.06,0.19-0.06,0.3
		c0,0.4,0.33,0.73,0.73,0.73c0.3,0,0.58-0.19,0.68-0.48c0.23-0.57,0.35-1.19,0.35-1.81C84.08,36.6,82.97,34.89,81.25,34.11
		L81.25,34.11L81.25,34.11z M81.25,34.11L81.25,34.11L81.25,34.11L81.25,34.11z"/>
</g>
</svg>
