<svg xmlns:xlink="http://www.w3.org/1999/xlink" xmlns="http://www.w3.org/2000/svg" width="100" height="72" viewBox="0 0 100 72">
    <g fill="none" fill-rule="evenodd">
        <g>
            <g>
                <g>
                    <path d="M0 0H100V72H0z" transform="translate(-575.000000, -236.000000) translate(352.000000, 204.000000) translate(223.000000, 32.000000)"/>
                    <g transform="translate(-575.000000, -236.000000) translate(352.000000, 204.000000) translate(223.000000, 32.000000) translate(24.000000, 9.000000)">
                        <path fill="#C1E0FF" d="M37 42h13c1.105 0 2 .895 2 2v5c0 2.761-2.239 5-5 5H37c-1.105 0-2-.895-2-2v-8c0-1.105.895-2 2-2z" opacity=".5"/>
                        <path fill="#DFEFFF" d="M41.821 13.216L23.833 6.335 6 13.215c-2.417 21.957 3.528 34.66 17.833 38.11 14.39-2.772 20.385-15.475 17.988-38.11z"/>
                        <g>
                            <path fill="#FFF" d="M2.91 0h17.463c1.608 0 2.91 1.297 2.91 2.897v1.93c0 1.6-1.302 2.897-2.91 2.897H2.91C1.303 7.724 0 6.427 0 4.828V2.897C0 1.297 1.303 0 2.91 0z" transform="translate(7.880597, 16.981854)"/>
                            <g fill="#FDC130" fill-rule="nonzero">
                                <path d="M1.94 0C.873 0 0 .869 0 1.931s.873 1.931 1.94 1.931 1.94-.869 1.94-1.931S3.008 0 1.94 0zM6.791 0c-1.067 0-1.94.869-1.94 1.931s.873 1.931 1.94 1.931 1.94-.869 1.94-1.931S7.858 0 6.791 0zM11.642 0c-1.067 0-1.94.869-1.94 1.931s.873 1.931 1.94 1.931 1.94-.869 1.94-1.931S12.71 0 11.642 0zM16.493 0c-1.068 0-1.94.869-1.94 1.931s.872 1.931 1.94 1.931c1.067 0 1.94-.869 1.94-1.931S17.56 0 16.493 0z" transform="translate(7.880597, 16.981854) translate(1.940299, 1.931034)"/>
                            </g>
                        </g>
                        <path fill="#6680AD" fill-rule="nonzero" d="M40.5 28.083c-2.73 0-4.966 2.166-5.079 4.87l-.004.214-.001 4.249h-1.333c-1.776 0-3.233 1.398-3.328 3.151l-.005.183v8.167c0 1.776 1.398 3.233 3.15 3.328l.183.005h12.834c1.776 0 3.233-1.398 3.328-3.15l.005-.183V40.75c0-1.776-1.398-3.233-3.151-3.328l-.183-.005-1.333-.001v-4.25c0-2.801-2.28-5.083-5.083-5.083zm6.417 11.334c.693 0 1.262.529 1.327 1.205l.006.128v8.167c0 .693-.529 1.262-1.205 1.327l-.128.006H34.083c-.693 0-1.262-.529-1.327-1.205l-.006-.128V40.75c0-.693.529-1.263 1.205-1.327l.128-.006h12.834zM40.5 30.083c1.64 0 2.984 1.286 3.078 2.903l.005.18v4.25h-6.166v-4.25c0-1.7 1.381-3.083 3.083-3.083z"/>
                        <path fill="#FFF" fill-rule="nonzero" d="M40.5 30.083c1.64 0 2.984 1.286 3.078 2.903l.005.18v4.25h-6.166v-4.25c0-1.7 1.381-3.083 3.083-3.083zM46.917 39.417c.693 0 1.262.529 1.327 1.205l.006.128v8.167c0 .693-.529 1.262-1.205 1.327l-.128.006H34.083c-.693 0-1.262-.529-1.327-1.205l-.006-.128V40.75c0-.693.529-1.263 1.205-1.327l.128-.006h12.834z"/>
                        <circle cx="40.5" cy="44.5" r="2.5" fill="#C4D4E3" fill-rule="nonzero"/>
                        <path fill="#6680AD" fill-rule="nonzero" d="M20.194.817l18.082 7c.388.15.64.518.64.931v14.42c0 1.305-.07 2.52-.218 3.712-.067.552-.553.933-1.124.872-.537-.066-.927-.564-.859-1.11.136-1.116.202-2.252.202-3.476V9.434L19.833 2.822 2.75 9.434v13.734c0 8.029 2.774 13.974 7.502 18.1 2.959 2.584 6.201 4.094 9.03 4.825l.544.133.177-.044c2.39-.596 5.273-1.822 8.029-3.869.447-.33 1.07-.238 1.4.207.328.444.236 1.071-.206 1.398-2.003 1.487-4.136 2.61-6.263 3.418l-.508.187-.482.166-.449.145-.412.124-.37.103-.324.082-.272.06-.115.022c-.08.018-.132.023-.198.023-.068 0-.127-.005-.177-.016l-.323-.074-.378-.1-.145-.04c-.654-.186-1.383-.43-2.166-.736-2.225-.87-4.446-2.074-6.511-3.66C4.262 39.117.75 32.46.75 23.169V8.748c0-.413.253-.782.639-.931l18.083-7c.231-.09.49-.09.722 0z"/>
                    </g>
                </g>
            </g>
        </g>
    </g>
</svg>