<svg xmlns="http://www.w3.org/2000/svg" xmlns:xlink="http://www.w3.org/1999/xlink" width="178" height="17" viewBox="0 0 178 17">
    <defs>
        <path id="9qte7nc4ca" d="M0 16.507L177.417 16.507 177.417 0 0 0z"/>
    </defs>
    <g fill="none" fill-rule="evenodd">
        <g>
            <g>
                <g transform="translate(-99.000000, -1132.000000) translate(-0.000000, 339.000000) translate(99.000000, 793.000000)">
                    <path fill="#AEAFB0" d="M66.448 5.993l.937-.097c.052.318.17.55.344.694.172.15.414.223.693.223.316 0 .542-.05.71-.19.151-.14.227-.285.227-.471 0-.104-.033-.197-.099-.275-.07-.073-.176-.151-.343-.213-.119-.031-.371-.105-.774-.197-.507-.128-.892-.294-1.076-.473-.296-.271-.451-.584-.451-.964 0-.24.068-.48.2-.681.153-.22.338-.383.609-.472.255-.128.567-.182.931-.182.608 0 1.049.13 1.357.387.312.267.451.615.468 1.057l-.96.042c-.031-.24-.118-.421-.257-.53-.138-.104-.339-.166-.618-.166-.274 0-.489.066-.644.178-.114.077-.163.182-.163.29 0 .12.043.213.141.294.14.104.415.217.881.32.474.12.823.23 1.044.35.224.112.404.286.522.484.132.209.209.456.209.75 0 .268-.077.535-.253.775-.13.248-.364.41-.628.539-.276.123-.629.177-1.05.177-.585 0-1.043-.143-1.374-.433-.335-.26-.523-.674-.583-1.216M71.138 2.78h.95v2.586c0 .406.028.674.037.786.055.201.14.367.293.48.17.108.365.181.637.181.287 0 .48-.05.63-.162.133-.116.21-.264.245-.414.03-.167.04-.434.04-.813V2.78h.97v2.501c0 .588-.019.983-.082 1.215-.043.24-.145.453-.294.596-.137.163-.313.302-.555.403-.228.093-.543.147-.924.147-.456 0-.795-.054-1.037-.167-.243-.1-.407-.24-.55-.406-.142-.162-.23-.341-.279-.53-.061-.275-.081-.67-.081-1.216V2.78zM76.923 3.585v1.367h.517c.381 0 .644-.023.762-.078.124-.058.225-.123.312-.227.07-.117.085-.237.085-.38 0-.174-.04-.314-.134-.446-.112-.104-.237-.177-.392-.197-.107-.023-.355-.04-.69-.04h-.46zm-.97 3.965V2.78h1.545c.596 0 .967.028 1.146.077.288.063.508.225.687.457.181.237.271.554.271.933 0 .299-.049.534-.153.747-.118.187-.254.353-.413.473-.156.104-.332.189-.483.217-.229.043-.575.065-1.017.065h-.613v1.8h-.97zM80.407 7.55L80.407 2.78 83.93 2.78 83.93 3.584 81.365 3.584 81.365 4.654 83.763 4.654 83.763 5.447 81.365 5.447 81.365 6.739 84.027 6.739 84.027 7.55zM85.805 4.797h.714c.463 0 .753-.016.865-.054.114-.043.217-.108.275-.213.078-.092.112-.205.112-.352 0-.16-.052-.294-.143-.387-.085-.098-.215-.163-.362-.19-.073 0-.32-.016-.704-.016h-.757v1.212zm-.958 2.753V2.78h2.034c.493 0 .877.039 1.097.136.237.08.43.232.576.445.127.22.191.46.191.755 0 .352-.103.659-.304.882-.22.244-.522.38-.954.449.22.113.383.248.513.4.145.146.331.402.563.777l.571.926h-1.156l-.69-1.03c-.24-.383-.407-.623-.504-.716-.09-.101-.193-.148-.292-.194-.103-.031-.273-.05-.488-.05h-.199v1.99h-.958z"/>
                    <mask id="rdsz6yu6nb" fill="#fff">
                        <use xlink:href="#9qte7nc4ca"/>
                    </mask>
                    <path fill="#AEAFB0" d="M89.63 7.55L90.596 7.55 90.596 2.78 89.63 2.78zM91.531 7.55L91.531 2.78 92.451 2.78 94.415 5.97 94.415 2.78 95.302 2.78 95.302 7.55 94.344 7.55 92.413 4.418 92.413 7.55zM97.409 7.55L97.409 3.584 95.983 3.584 95.983 2.78 99.78 2.78 99.78 3.584 98.365 3.584 98.365 7.55zM100.404 7.55L100.404 2.78 103.944 2.78 103.944 3.584 101.367 3.584 101.367 4.654 103.764 4.654 103.764 5.447 101.367 5.447 101.367 6.739 104.029 6.739 104.029 7.55zM104.849 7.55L104.849 2.78 105.791 2.78 107.748 5.97 107.748 2.78 108.646 2.78 108.646 7.55 107.662 7.55 105.749 4.418 105.749 7.55zM110.621 3.585V6.74h.718c.271 0 .47-.008.588-.038.144-.04.291-.112.391-.19.103-.097.182-.255.244-.472.08-.205.107-.5.107-.867 0-.36-.027-.658-.107-.863-.062-.19-.163-.35-.26-.454-.123-.116-.274-.177-.466-.224-.124-.031-.383-.047-.774-.047h-.44zm-.96-.805h1.755c.401 0 .697.028.92.097.273.077.511.22.708.437.196.209.348.458.451.775.114.306.172.68.172 1.118 0 .403-.052.739-.149 1.019-.133.348-.292.63-.517.847-.17.162-.392.29-.665.376-.223.066-.51.1-.856.1h-1.819V2.78zM114.475 7.55L114.475 2.78 118.015 2.78 118.015 3.584 115.437 3.584 115.437 4.654 117.826 4.654 117.826 5.447 115.437 5.447 115.437 6.739 118.116 6.739 118.116 7.55zM118.932 7.55L118.932 2.78 119.861 2.78 121.82 5.97 121.82 2.78 122.716 2.78 122.716 7.55 121.754 7.55 119.83 4.418 119.83 7.55zM126.799 5.803l.92.29c-.151.53-.378.898-.711 1.161-.34.26-.751.388-1.271.388-.622 0-1.158-.233-1.557-.662-.397-.426-.596-1.023-.596-1.774 0-.789.199-1.405.596-1.845.399-.442.947-.666 1.614-.666.593 0 1.063.181 1.419.514.225.213.387.507.496.895l-.958.22c-.058-.25-.173-.445-.355-.592-.166-.132-.377-.209-.644-.209-.335 0-.637.12-.862.375-.22.252-.321.662-.321 1.231 0 .61.1 1.041.32 1.285.219.272.495.4.848.4.24 0 .47-.082.659-.252.173-.163.323-.414.403-.759M128.521 7.55L129.487 7.55 129.487 2.78 128.521 2.78zM132.925 5.664l-.643-1.776-.658 1.776h1.3zm1.785 1.886h-1.05l-.43-1.084h-1.883l-.4 1.084h-1.034l1.866-4.77h1.017l1.914 4.77zM136.826 7.55L136.826 2.78 140.101 2.78 140.101 3.584 137.788 3.584 137.788 4.723 139.784 4.723 139.784 5.513 137.788 5.513 137.788 7.55zM140.872 7.55L141.822 7.55 141.822 2.78 140.872 2.78zM142.747 7.55L142.747 2.78 143.698 2.78 145.647 5.97 145.647 2.78 146.531 2.78 146.531 7.55 145.579 7.55 143.657 4.418 143.657 7.55zM150.093 5.664l-.656-1.776-.656 1.776h1.312zm1.769 1.886h-1.038l-.419-1.084h-1.911l-.402 1.084h-1.026l1.866-4.77h1.01l1.92 4.77zM152.383 7.55L152.383 2.78 153.32 2.78 155.275 5.97 155.275 2.78 156.169 2.78 156.169 7.55 155.205 7.55 153.277 4.418 153.277 7.55zM160.238 5.803l.933.29c-.132.53-.373.898-.718 1.161-.326.26-.743.388-1.257.388-.64 0-1.166-.233-1.564-.662-.4-.426-.615-1.023-.615-1.774 0-.789.215-1.405.615-1.845.412-.442.95-.666 1.606-.666.599 0 1.07.181 1.435.514.21.213.374.507.492.895l-.958.22c-.052-.25-.163-.445-.349-.592-.185-.132-.39-.209-.643-.209-.364 0-.66.12-.869.375-.227.252-.333.662-.333 1.231 0 .61.106 1.041.317 1.285.225.272.505.4.844.4.273 0 .484-.082.677-.252.167-.163.304-.414.387-.759M161.973 7.55L162.937 7.55 162.937 2.78 161.973 2.78zM163.857 7.55L163.857 2.78 167.405 2.78 167.405 3.584 164.815 3.584 164.815 4.654 167.219 4.654 167.219 5.447 164.815 5.447 164.815 6.739 167.482 6.739 167.482 7.55zM169.273 4.812h.708c.453 0 .759-.03.867-.069.112-.043.203-.109.273-.213.066-.093.093-.205.093-.353 0-.159-.027-.294-.131-.386-.074-.098-.204-.164-.358-.19-.072 0-.314-.017-.715-.017h-.737v1.228zm-.964 2.737V2.78h2.028c.51 0 .877.04 1.107.136.225.081.414.231.56.445.129.221.209.46.209.755 0 .351-.103.658-.321.882-.211.244-.523.38-.937.45.21.111.369.247.51.398.14.147.328.403.55.778l.585.925h-1.156l-.69-1.03c-.262-.383-.42-.623-.504-.716-.097-.1-.193-.147-.306-.193-.092-.03-.257-.05-.478-.05h-.193v1.99h-.964zM175.65 5.664l-.664-1.776-.642 1.776h1.306zm1.767 1.886h-1.043l-.42-1.084h-1.907l-.387 1.084h-1.03l1.857-4.77h1.033l1.897 4.77zM99.56 10.472v3.174h.73c.26 0 .467-.016.58-.043.152-.046.282-.112.393-.209.11-.097.183-.243.26-.456.051-.217.09-.504.09-.879 0-.368-.039-.643-.09-.84-.077-.202-.156-.356-.296-.465-.104-.104-.26-.193-.427-.228-.138-.035-.418-.054-.802-.054h-.439zm-.95-.786h1.754c.393 0 .701.02.912.081.284.081.521.232.724.437.19.213.348.465.456.775.092.31.154.684.154 1.126 0 .391-.057.736-.154 1.022-.118.345-.295.623-.504.844-.177.162-.392.282-.676.375-.215.063-.503.102-.858.102H98.61V9.686zM103.436 14.448L103.436 9.686 106.957 9.686 106.957 10.472 104.378 10.472 104.378 11.545 106.781 11.545 106.781 12.353 104.378 12.353 104.378 13.646 107.038 13.646 107.038 14.448zM112.776 12.69l.94.298c-.16.522-.391.894-.718 1.165-.346.256-.758.376-1.281.376-.623 0-1.15-.217-1.552-.647-.407-.433-.608-1.026-.608-1.785 0-.789.2-1.409.608-1.842.403-.445.944-.662 1.612-.662.59 0 1.07.174 1.425.511.21.217.386.5.488.895l-.951.22c-.06-.244-.176-.445-.35-.577-.184-.155-.387-.224-.655-.224-.36 0-.64.12-.861.386-.21.248-.321.655-.321 1.236 0 .603.106 1.025.32 1.281.22.26.497.394.84.394.258 0 .485-.085.667-.25.178-.168.32-.422.397-.775M115.328 12.06c0 .533.126.955.377 1.226.25.291.572.43.958.43.382 0 .69-.139.937-.427.256-.274.37-.696.37-1.25 0-.542-.114-.956-.356-1.219-.24-.263-.557-.403-.95-.403-.405 0-.738.14-.968.414-.242.268-.368.682-.368 1.228m-1.004.034c0-.487.096-.909.23-1.23.116-.24.255-.457.45-.647.187-.197.402-.348.611-.429.292-.132.644-.194 1.031-.194.706 0 1.26.217 1.696.662.424.43.627 1.033.627 1.812 0 .774-.203 1.382-.618 1.811-.419.434-.999.651-1.688.651-.708 0-1.285-.217-1.699-.647-.41-.433-.64-1.04-.64-1.789M119.751 14.448L119.751 9.718 120.711 9.718 120.711 13.646 123.1 13.646 123.1 14.448zM124.578 12.06c0 .533.14.955.391 1.226.244.291.56.43.94.43.4 0 .713-.139.961-.427.227-.274.364-.696.364-1.25 0-.542-.137-.956-.364-1.219-.229-.263-.546-.403-.962-.403-.393 0-.706.14-.96.414-.236.268-.37.682-.37 1.228m-.983.034c0-.487.064-.909.22-1.23.111-.24.263-.457.442-.647.194-.197.393-.348.615-.429.304-.132.643-.194 1.036-.194.693 0 1.256.217 1.682.662.426.43.638 1.033.638 1.812 0 .774-.212 1.382-.629 1.811-.435.434-.973.651-1.678.651-.708 0-1.27-.217-1.697-.647-.41-.433-.629-1.04-.629-1.789M128.972 14.448L128.972 9.686 130.412 9.686 131.268 12.927 132.127 9.686 133.569 9.686 133.569 14.448 132.68 14.448 132.671 10.688 131.736 14.448 130.796 14.448 129.865 10.688 129.863 14.448zM135.489 12.369v1.277h.893c.359 0 .58-.015.659-.031.148-.026.272-.097.368-.185.083-.11.124-.241.124-.415 0-.14-.035-.263-.099-.36-.073-.097-.181-.174-.307-.221-.128-.045-.418-.065-.848-.065h-.79zm0-1.9v1.11h.645c.371 0 .607-.012.694-.031.171-.003.299-.066.388-.182.097-.077.145-.193.145-.35 0-.153-.048-.273-.124-.366-.083-.09-.201-.151-.372-.177-.09-.004-.36-.004-.822-.004h-.554zm-.958-.783h1.911c.375 0 .654.004.838.038.188.032.35.094.493.19.141.105.273.24.372.407.108.152.151.349.151.558 0 .22-.07.418-.182.615-.13.174-.283.32-.484.422.284.08.515.22.666.422.151.209.232.44.232.727 0 .22-.044.426-.153.62-.102.213-.23.379-.414.499-.172.128-.393.206-.648.24-.159.008-.546.024-1.148.024h-1.634V9.686zM139.316 14.448L140.278 14.448 140.278 9.686 139.316 9.686zM143.721 12.558l-.65-1.772-.65 1.772h1.3zm1.778 1.89h-1.043l-.418-1.08h-1.904l-.399 1.08H140.7l1.866-4.762h1.03l1.904 4.762zM5.006 11.289L3.027 5.703 4.243 5.703 5.656 9.845 7.013 5.703 8.22 5.703 6.225 11.289zM11.532 11.289L12.658 11.289 12.658 5.703 11.532 5.703zM19.094 9.233v-.948h2.42v2.241c-.223.217-.577.437-1.018.603-.449.16-.902.264-1.359.264-.583 0-1.107-.132-1.539-.376-.426-.243-.741-.588-.962-1.049-.226-.464-.339-.96-.339-1.494 0-.565.12-1.095.376-1.553.238-.452.592-.796 1.065-1.033.361-.193.797-.278 1.333-.278.695 0 1.231.14 1.624.43.389.297.641.696.755 1.214l-1.113.21c-.083-.283-.242-.488-.442-.65-.238-.163-.501-.24-.824-.24-.482 0-.891.154-1.167.464-.298.317-.441.778-.441 1.394 0 .661.143 1.161.443 1.494.29.33.683.503 1.155.503.231 0 .461-.058.715-.15.222-.09.437-.202.604-.334v-.712h-1.286zM25.3 11.289L26.419 11.289 26.419 5.703 25.3 5.703zM30.299 11.289L30.299 5.749 31.412 5.749 31.412 10.341 34.242 10.341 34.242 11.289zM40.763 9.082L40.003 7l-.783 2.082h1.543zm2.08 2.207h-1.23l-.49-1.266h-2.237l-.452 1.266H37.24l2.162-5.586h1.204l2.238 5.586zM47.34 6.651v3.69h.844c.31 0 .532-.012.68-.05.17-.047.334-.118.455-.226.102-.112.212-.298.293-.546.066-.243.105-.596.105-1.02 0-.427-.04-.764-.105-.996-.081-.233-.191-.422-.323-.55-.131-.109-.311-.213-.518-.25-.163-.04-.48-.052-.931-.052h-.5zm-1.13-.948h2.047c.479 0 .829.035 1.062.1.338.093.613.267.843.523.248.248.424.546.544.894.122.368.194.81.194 1.331 0 .45-.072.848-.184 1.19-.141.406-.34.727-.596.986-.19.194-.463.345-.801.445-.245.082-.572.117-.99.117h-2.12V5.703zM55.539 8.494c0 .63.146 1.107.453 1.433.282.336.66.503 1.099.503.463 0 .835-.167 1.11-.49.288-.34.435-.815.435-1.466 0-.638-.141-1.111-.418-1.436-.281-.306-.662-.464-1.127-.464-.462 0-.826.158-1.116.472-.29.32-.436.805-.436 1.448m-1.155.043c0-.59.085-1.062.257-1.444.135-.28.296-.538.509-.755.226-.23.48-.4.732-.503.354-.152.747-.225 1.209-.225.819 0 1.469.259 1.975.766.49.496.725 1.22.725 2.122 0 .9-.235 1.606-.725 2.125-.494.507-1.14.77-1.975.77-.826 0-1.482-.263-1.978-.766-.472-.52-.73-1.196-.73-2.09M0 2.56L63.178 2.56 63.178.001 0 .001zM0 16.507L63.178 16.507 63.178 13.948 0 13.948z" mask="url(#rdsz6yu6nb)"/>
                </g>
            </g>
        </g>
    </g>
</svg>
